<?xml version="1.0" encoding="UTF-8" standalone="no"?>
<svg style="enable-background:new" xmlns="http://www.w3.org/2000/svg" height="512" width="512" version="1.0">
 <title>Linphone Icon</title>
 <defs>
  <linearGradient id="a" x1="256" gradientUnits="userSpaceOnUse" x2="512" y1="44.01" y2="0">
   <stop stop-color="#eb6536" offset="0"/>
   <stop stop-color="#fb8640" offset="1"/>
  </linearGradient>
 </defs>
 <rect style="opacity:0.96;fill:url(#a)" height="512" width="512" y="0" x="0"/>
 <g style="fill:#f1f1f1">
  <path d="m211 184.4c-13.31 3.013-36.05 7.493-30.01 27.74 7.683 25.74 29.34 49.16 47.26 67.08l-0.00049 0.00046c0.0179 0.0179 0.0354 0.0356 0.0533 0.0533 0.0179 0.0179 0.0354 0.0356 0.0533 0.0533l0.00048-0.00044c17.92 17.92 41.35 39.57 67.08 47.26 20.25 6.045 24.73-16.7 27.74-30.01l-42.9-18.89-16.8 9.08c-6.2-3.98-17-13.95-23.7-20.61-6.6-6.65-16.6-17.41-20.6-23.64l10.79-15.14-18.9-42.98z"/>
  <path d="m512 320.9v-320.9h-341.2z"/>
  <path d="m211 184.4c-13.31 3.013-36.05 7.493-30.01 27.74 7.683 25.74 29.34 49.16 47.26 67.08l-0.00049 0.00046c0.0179 0.0179 0.0354 0.0356 0.0533 0.0533 0.0179 0.0179 0.0354 0.0356 0.0533 0.0533l0.00048-0.00044c17.92 17.92 41.35 39.57 67.08 47.26 20.25 6.045 24.73-16.7 27.74-30.01l-42.9-18.89-16.8 9.08c-6.2-3.98-17-13.95-23.7-20.61-6.6-6.65-16.6-17.41-20.6-23.64l10.79-15.14-18.9-42.98z"/>
 </g>
</svg>
