<?xml version="1.0" encoding="UTF-8" standalone="no"?>
<svg xmlns="http://www.w3.org/2000/svg" height="96" width="96" version="1.1" viewBox="0 0 96 96">
 <path d="m67.33 32.54c0 3.073-0.4587 5.905-1.404 8.467-0.9358 2.535-2.285 4.762-4.035 6.626-1.701 1.863-3.763 3.324-6.131 4.35l-0.01602 0.0073-0.01602 0.0055c-2.385 0.9822-4.976 1.468-7.724 1.468-2.747 0-5.34-0.4855-7.726-1.468l-0.01602-0.0055-0.0142-0.0073c-2.369-1.027-4.454-2.485-6.2-4.343l-0.0091-0.01064-0.0091-0.0091c-1.699-1.864-3.017-4.086-3.95-6.614-0.9456-2.562-1.404-5.394-1.404-8.467 0-3.025 0.4591-5.832 1.401-8.387l0.0018-0.0036c0.9317-2.573 2.248-4.823 3.952-6.692l0.0091-0.0091 0.0091-0.01065c1.746-1.858 3.837-3.295 6.209-4.275 2.389-1.034 4.992-1.548 7.747-1.548 2.753 0 5.353 0.5148 7.742 1.548 2.372 0.9801 4.443 2.419 6.145 4.282 1.754 1.868 3.101 4.12 4.035 6.697 0.9442 2.558 1.404 5.369 1.404 8.398zm-3.641 0c0-2.662-0.4008-5.031-1.179-7.138l-0.0036-0.0055-0.0018-0.0055c-0.78-2.17-1.87-3.98-3.27-5.46l-0.01065-0.0091-0.0091-0.01065c-1.352-1.483-2.954-2.602-4.873-3.392l-0.01602-0.0055-0.0142-0.0073c-1.913-0.8293-3.995-1.249-6.307-1.249s-4.394 0.4199-6.307 1.249l-0.01602 0.0073-0.01602 0.0055c-1.917 0.7894-3.547 1.911-4.949 3.399-1.354 1.488-2.427 3.294-3.216 5.475l-0.0018 0.0055-0.0018 0.0055c-0.7778 2.107-1.18 4.476-1.18 7.138 0 2.712 0.404 5.104 1.18 7.207 0.7877 2.134 1.86 3.921 3.219 5.414 1.403 1.489 3.042 2.636 4.963 3.472 1.916 0.7869 4.007 1.189 6.325 1.189 2.319 0 4.41-0.401 6.327-1.189 1.922-0.8363 3.531-1.981 4.883-3.465l0.0091-0.01065 0.01065-0.0091c1.404-1.493 2.493-3.275 3.278-5.402 0.7764-2.103 1.179-4.495 1.179-7.207z" style="color-rendering:auto;text-decoration-color:#000000;color:#000000;font-variant-numeric:normal;text-orientation:mixed;shape-rendering:auto;solid-color:#000000;text-decoration-line:none;fill:#eb6536;font-variant-position:normal;mix-blend-mode:normal;font-feature-settings:normal;shape-padding:0;font-variant-alternates:normal;text-indent:0;dominant-baseline:auto;font-variant-caps:normal;image-rendering:auto;white-space:normal;text-decoration-style:solid;font-variant-ligatures:normal;isolation:auto;text-transform:none"/>
 <path d="m84.42 84.41-3.641 0.0018c0-4.46-0.36-8.05-1.23-10.83-0.88-2.79-2.22-4.77-4.4-6.36-4.38-3.18-12.7-4.66-27.15-4.66s-22.77 1.475-27.15 4.657c-2.19 1.591-3.528 3.573-4.41 6.358-0.8819 2.784-1.238 6.372-1.248 10.83l-3.641-0.0091c0.01056-4.642 0.3529-8.562 1.417-11.92 1.064-3.359 2.919-6.155 5.74-8.204 5.642-4.099 14.62-5.354 29.29-5.354 14.68 0.000009 23.65 1.254 29.29 5.354 2.819 2.05 4.671 4.846 5.731 8.206s1.397 7.282 1.401 11.92z" style="color-rendering:auto;text-decoration-color:#000000;color:#000000;font-variant-numeric:normal;text-orientation:mixed;shape-rendering:auto;solid-color:#000000;text-decoration-line:none;fill:#eb6536;font-variant-position:normal;mix-blend-mode:normal;font-feature-settings:normal;shape-padding:0;font-variant-alternates:normal;text-indent:0;dominant-baseline:auto;font-variant-caps:normal;image-rendering:auto;white-space:normal;text-decoration-style:solid;font-variant-ligatures:normal;isolation:auto;text-transform:none"/>
</svg>
